<svg width="163" height="63" viewBox="0 0 163 63" fill="none" xmlns="http://www.w3.org/2000/svg">
<rect width="163" height="63" rx="31.5" fill="#CAFF33"/>
<path d="M37.398 38.18C36.486 38.18 35.634 38.018 34.842 37.694C34.05 37.358 33.354 36.896 32.754 36.308C32.154 35.72 31.686 35.036 31.35 34.256C31.026 33.464 30.864 32.612 30.864 31.7C30.864 30.8 31.026 29.96 31.35 29.18C31.686 28.4 32.148 27.722 32.736 27.146C33.336 26.558 34.032 26.102 34.824 25.778C35.616 25.454 36.468 25.292 37.38 25.292C38.016 25.292 38.634 25.382 39.234 25.562C39.846 25.742 40.398 25.994 40.89 26.318C41.382 26.642 41.784 27.014 42.096 27.434L40.836 28.748C40.476 28.4 40.104 28.112 39.72 27.884C39.348 27.656 38.964 27.482 38.568 27.362C38.172 27.242 37.776 27.182 37.38 27.182C36.732 27.182 36.132 27.296 35.58 27.524C35.04 27.752 34.56 28.07 34.14 28.478C33.732 28.886 33.414 29.366 33.186 29.918C32.958 30.458 32.844 31.052 32.844 31.7C32.844 32.324 32.964 32.918 33.204 33.482C33.444 34.034 33.774 34.52 34.194 34.94C34.626 35.36 35.118 35.69 35.67 35.93C36.234 36.17 36.828 36.29 37.452 36.29C37.92 36.29 38.364 36.224 38.784 36.092C39.204 35.948 39.576 35.75 39.9 35.498C40.224 35.246 40.476 34.958 40.656 34.634C40.836 34.298 40.926 33.944 40.926 33.572V33.212L41.196 33.464H37.344V31.538H42.924C42.948 31.67 42.966 31.802 42.978 31.934C42.99 32.054 42.996 32.174 42.996 32.294C43.008 32.402 43.014 32.51 43.014 32.618C43.014 33.446 42.87 34.202 42.582 34.886C42.294 35.558 41.892 36.14 41.376 36.632C40.872 37.124 40.278 37.508 39.594 37.784C38.922 38.048 38.19 38.18 37.398 38.18ZM49.4873 38.18C48.5153 38.18 47.6513 37.976 46.8953 37.568C46.1513 37.148 45.5633 36.578 45.1313 35.858C44.7113 35.138 44.5013 34.31 44.5013 33.374C44.5013 32.63 44.6213 31.952 44.8613 31.34C45.1013 30.728 45.4313 30.2 45.8513 29.756C46.2833 29.3 46.7933 28.952 47.3813 28.712C47.9813 28.46 48.6293 28.334 49.3253 28.334C49.9373 28.334 50.5073 28.454 51.0353 28.694C51.5633 28.922 52.0193 29.24 52.4033 29.648C52.7993 30.056 53.0993 30.542 53.3033 31.106C53.5193 31.658 53.6213 32.264 53.6093 32.924L53.5913 33.716H45.8693L45.4553 32.24H51.9893L51.7193 32.546V32.114C51.6833 31.718 51.5513 31.364 51.3233 31.052C51.0953 30.74 50.8073 30.494 50.4593 30.314C50.1113 30.134 49.7333 30.044 49.3253 30.044C48.6773 30.044 48.1313 30.17 47.6873 30.422C47.2433 30.662 46.9073 31.022 46.6793 31.502C46.4513 31.97 46.3373 32.552 46.3373 33.248C46.3373 33.908 46.4753 34.484 46.7513 34.976C47.0273 35.456 47.4173 35.828 47.9213 36.092C48.4253 36.356 49.0073 36.488 49.6673 36.488C50.1353 36.488 50.5673 36.41 50.9633 36.254C51.3713 36.098 51.8093 35.816 52.2773 35.408L53.2133 36.722C52.9253 37.01 52.5713 37.262 52.1513 37.478C51.7433 37.694 51.3053 37.868 50.8373 38C50.3813 38.12 49.9313 38.18 49.4873 38.18ZM56.7941 38V26.138H58.6481V38H56.7941ZM54.8321 30.35V28.55H60.8441V30.35H54.8321ZM71.9333 38.18C71.2493 38.18 70.6133 38.09 70.0253 37.91C69.4493 37.73 68.9213 37.46 68.4413 37.1C67.9733 36.728 67.5533 36.272 67.1813 35.732L68.5133 34.202C69.1013 35.042 69.6653 35.624 70.2053 35.948C70.7453 36.272 71.3873 36.434 72.1313 36.434C72.5873 36.434 73.0013 36.362 73.3733 36.218C73.7453 36.074 74.0393 35.876 74.2553 35.624C74.4713 35.372 74.5793 35.084 74.5793 34.76C74.5793 34.544 74.5433 34.34 74.4713 34.148C74.3993 33.956 74.2853 33.782 74.1293 33.626C73.9853 33.47 73.7933 33.326 73.5533 33.194C73.3253 33.062 73.0553 32.948 72.7433 32.852C72.4313 32.744 72.0713 32.654 71.6633 32.582C71.0153 32.45 70.4513 32.276 69.9713 32.06C69.4913 31.844 69.0893 31.574 68.7653 31.25C68.4413 30.926 68.2013 30.56 68.0453 30.152C67.8893 29.732 67.8113 29.264 67.8113 28.748C67.8113 28.244 67.9193 27.776 68.1353 27.344C68.3633 26.912 68.6693 26.54 69.0533 26.228C69.4493 25.904 69.9113 25.658 70.4393 25.49C70.9673 25.31 71.5373 25.22 72.1493 25.22C72.7973 25.22 73.3913 25.304 73.9313 25.472C74.4713 25.64 74.9513 25.892 75.3712 26.228C75.7913 26.552 76.1393 26.954 76.4153 27.434L75.0473 28.784C74.8073 28.388 74.5373 28.058 74.2373 27.794C73.9373 27.518 73.6073 27.314 73.2473 27.182C72.8873 27.038 72.5033 26.966 72.0953 26.966C71.6273 26.966 71.2193 27.038 70.8713 27.182C70.5233 27.326 70.2473 27.53 70.0433 27.794C69.8513 28.046 69.7553 28.346 69.7553 28.694C69.7553 28.946 69.8033 29.18 69.8993 29.396C69.9953 29.6 70.1393 29.786 70.3313 29.954C70.5353 30.11 70.8053 30.254 71.1413 30.386C71.4773 30.506 71.8793 30.614 72.3473 30.71C73.0073 30.854 73.5953 31.04 74.1113 31.268C74.6273 31.484 75.0653 31.742 75.4253 32.042C75.7853 32.342 76.0553 32.678 76.2353 33.05C76.4273 33.422 76.5233 33.824 76.5233 34.256C76.5233 35.06 76.3373 35.756 75.9653 36.344C75.5933 36.932 75.0653 37.388 74.3813 37.712C73.6973 38.024 72.8813 38.18 71.9333 38.18ZM79.9797 38V26.138H81.8337V38H79.9797ZM78.0177 30.35V28.55H84.0297V30.35H78.0177ZM89.266 38.18C88.486 38.18 87.772 37.964 87.124 37.532C86.488 37.1 85.978 36.512 85.594 35.768C85.21 35.024 85.018 34.184 85.018 33.248C85.018 32.3 85.21 31.46 85.594 30.728C85.99 29.984 86.518 29.402 87.178 28.982C87.85 28.562 88.6 28.352 89.428 28.352C89.92 28.352 90.37 28.424 90.778 28.568C91.186 28.712 91.54 28.916 91.84 29.18C92.152 29.432 92.404 29.726 92.596 30.062C92.8 30.398 92.926 30.758 92.974 31.142L92.56 30.998V28.55H94.432V38H92.56V35.75L92.992 35.624C92.92 35.948 92.77 36.266 92.542 36.578C92.326 36.878 92.044 37.148 91.696 37.388C91.36 37.628 90.982 37.82 90.562 37.964C90.154 38.108 89.722 38.18 89.266 38.18ZM89.752 36.47C90.316 36.47 90.814 36.332 91.246 36.056C91.678 35.78 92.014 35.402 92.254 34.922C92.506 34.43 92.632 33.872 92.632 33.248C92.632 32.636 92.506 32.09 92.254 31.61C92.014 31.13 91.678 30.752 91.246 30.476C90.814 30.2 90.316 30.062 89.752 30.062C89.2 30.062 88.708 30.2 88.276 30.476C87.856 30.752 87.52 31.13 87.268 31.61C87.028 32.09 86.908 32.636 86.908 33.248C86.908 33.872 87.028 34.43 87.268 34.922C87.52 35.402 87.856 35.78 88.276 36.056C88.708 36.332 89.2 36.47 89.752 36.47ZM97.0206 38V28.55H98.8926V31.52L98.7126 30.8C98.8446 30.344 99.0666 29.93 99.3786 29.558C99.7026 29.186 100.069 28.892 100.477 28.676C100.897 28.46 101.329 28.352 101.773 28.352C101.977 28.352 102.169 28.37 102.349 28.406C102.541 28.442 102.691 28.484 102.799 28.532L102.313 30.548C102.169 30.488 102.007 30.44 101.827 30.404C101.659 30.356 101.491 30.332 101.323 30.332C100.999 30.332 100.687 30.398 100.387 30.53C100.099 30.65 99.8406 30.824 99.6126 31.052C99.3966 31.268 99.2226 31.526 99.0906 31.826C98.9586 32.114 98.8926 32.432 98.8926 32.78V38H97.0206ZM105.802 38V26.138H107.656V38H105.802ZM103.84 30.35V28.55H109.852V30.35H103.84ZM115.862 38.18C114.89 38.18 114.026 37.976 113.27 37.568C112.526 37.148 111.938 36.578 111.506 35.858C111.086 35.138 110.876 34.31 110.876 33.374C110.876 32.63 110.996 31.952 111.236 31.34C111.476 30.728 111.806 30.2 112.226 29.756C112.658 29.3 113.168 28.952 113.756 28.712C114.356 28.46 115.004 28.334 115.7 28.334C116.312 28.334 116.882 28.454 117.41 28.694C117.938 28.922 118.394 29.24 118.778 29.648C119.174 30.056 119.474 30.542 119.678 31.106C119.894 31.658 119.996 32.264 119.984 32.924L119.966 33.716H112.244L111.83 32.24H118.364L118.094 32.546V32.114C118.058 31.718 117.926 31.364 117.698 31.052C117.47 30.74 117.182 30.494 116.834 30.314C116.486 30.134 116.108 30.044 115.7 30.044C115.052 30.044 114.506 30.17 114.062 30.422C113.618 30.662 113.282 31.022 113.054 31.502C112.826 31.97 112.712 32.552 112.712 33.248C112.712 33.908 112.85 34.484 113.126 34.976C113.402 35.456 113.792 35.828 114.296 36.092C114.8 36.356 115.382 36.488 116.042 36.488C116.51 36.488 116.942 36.41 117.338 36.254C117.746 36.098 118.184 35.816 118.652 35.408L119.588 36.722C119.3 37.01 118.946 37.262 118.526 37.478C118.118 37.694 117.68 37.868 117.212 38C116.756 38.12 116.306 38.18 115.862 38.18ZM125.941 38.18C125.077 38.18 124.303 37.97 123.619 37.55C122.947 37.118 122.413 36.536 122.017 35.804C121.621 35.06 121.423 34.214 121.423 33.266C121.423 32.318 121.615 31.478 121.999 30.746C122.395 30.002 122.929 29.42 123.601 29C124.273 28.568 125.035 28.352 125.887 28.352C126.355 28.352 126.805 28.43 127.237 28.586C127.681 28.73 128.077 28.934 128.425 29.198C128.773 29.45 129.043 29.732 129.235 30.044C129.439 30.344 129.541 30.65 129.541 30.962L129.001 30.998V24.68H130.855V38H129.001V35.75H129.361C129.361 36.038 129.265 36.326 129.073 36.614C128.881 36.89 128.623 37.148 128.299 37.388C127.987 37.628 127.621 37.82 127.201 37.964C126.793 38.108 126.373 38.18 125.941 38.18ZM126.193 36.578C126.757 36.578 127.255 36.434 127.687 36.146C128.119 35.858 128.455 35.468 128.695 34.976C128.947 34.472 129.073 33.902 129.073 33.266C129.073 32.63 128.947 32.066 128.695 31.574C128.455 31.07 128.119 30.674 127.687 30.386C127.255 30.098 126.757 29.954 126.193 29.954C125.629 29.954 125.131 30.098 124.699 30.386C124.267 30.674 123.925 31.07 123.673 31.574C123.433 32.066 123.313 32.63 123.313 33.266C123.313 33.902 123.433 34.472 123.673 34.976C123.925 35.468 124.267 35.858 124.699 36.146C125.131 36.434 125.629 36.578 126.193 36.578Z" fill="#1C1C1C"/>
</svg>
