<svg width="144" height="49" viewBox="0 0 144 49" fill="none" xmlns="http://www.w3.org/2000/svg">
<rect width="144" height="49" rx="24.5" fill="#CAFF33"/>
<path d="M29.474 30.14C28.7833 30.14 28.144 30.014 27.556 29.762C26.9773 29.51 26.4687 29.16 26.03 28.712C25.6007 28.2547 25.2647 27.7227 25.022 27.116C24.7887 26.5 24.672 25.828 24.672 25.1C24.672 24.372 24.7887 23.7047 25.022 23.098C25.2647 22.482 25.6007 21.95 26.03 21.502C26.4687 21.0447 26.9773 20.69 27.556 20.438C28.144 20.186 28.7833 20.06 29.474 20.06C30.1647 20.06 30.7993 20.186 31.378 20.438C31.966 20.69 32.4747 21.0447 32.904 21.502C33.3427 21.9593 33.6787 22.496 33.912 23.112C34.1547 23.7187 34.276 24.3813 34.276 25.1C34.276 25.8187 34.1547 26.486 33.912 27.102C33.6787 27.7087 33.3427 28.2407 32.904 28.698C32.4747 29.1553 31.966 29.51 31.378 29.762C30.7993 30.014 30.1647 30.14 29.474 30.14ZM29.474 28.67C29.95 28.67 30.384 28.5813 30.776 28.404C31.1773 28.2267 31.5227 27.9793 31.812 27.662C32.1013 27.3353 32.3253 26.9573 32.484 26.528C32.652 26.0893 32.736 25.6133 32.736 25.1C32.736 24.5867 32.652 24.1153 32.484 23.686C32.3253 23.2473 32.1013 22.8693 31.812 22.552C31.5227 22.2253 31.1773 21.9733 30.776 21.796C30.384 21.6187 29.95 21.53 29.474 21.53C28.998 21.53 28.5593 21.6187 28.158 21.796C27.766 21.9733 27.4207 22.2207 27.122 22.538C26.8327 22.8553 26.6087 23.2333 26.45 23.672C26.2913 24.1013 26.212 24.5773 26.212 25.1C26.212 25.6133 26.2913 26.0893 26.45 26.528C26.6087 26.9667 26.8327 27.3447 27.122 27.662C27.4207 27.9793 27.766 28.2267 28.158 28.404C28.5593 28.5813 28.998 28.67 29.474 28.67ZM35.9592 33.08V22.65H37.4152V24.33L37.1912 24.204C37.2472 23.924 37.4058 23.658 37.6672 23.406C37.9285 23.1447 38.2458 22.9347 38.6192 22.776C39.0018 22.608 39.3938 22.524 39.7952 22.524C40.4578 22.524 41.0458 22.6873 41.5592 23.014C42.0725 23.3407 42.4785 23.7887 42.7772 24.358C43.0758 24.9273 43.2252 25.5807 43.2252 26.318C43.2252 27.046 43.0758 27.6993 42.7772 28.278C42.4878 28.8473 42.0865 29.3 41.5732 29.636C41.0598 29.9627 40.4812 30.126 39.8372 30.126C39.4078 30.126 38.9925 30.042 38.5912 29.874C38.1898 29.6967 37.8492 29.4727 37.5692 29.202C37.2892 28.9313 37.1165 28.6513 37.0512 28.362L37.4152 28.166V33.08H35.9592ZM39.5992 28.796C40.0285 28.796 40.4112 28.6887 40.7472 28.474C41.0832 28.2593 41.3492 27.9653 41.5452 27.592C41.7412 27.2187 41.8392 26.794 41.8392 26.318C41.8392 25.842 41.7412 25.422 41.5452 25.058C41.3585 24.6847 41.0972 24.3907 40.7612 24.176C40.4252 23.9613 40.0378 23.854 39.5992 23.854C39.1605 23.854 38.7732 23.9613 38.4372 24.176C38.1012 24.3813 37.8352 24.6707 37.6392 25.044C37.4432 25.4173 37.3452 25.842 37.3452 26.318C37.3452 26.794 37.4432 27.2187 37.6392 27.592C37.8352 27.9653 38.1012 28.2593 38.4372 28.474C38.7732 28.6887 39.1605 28.796 39.5992 28.796ZM48.2212 30.14C47.4652 30.14 46.7932 29.9813 46.2052 29.664C45.6265 29.3373 45.1692 28.894 44.8332 28.334C44.5065 27.774 44.3432 27.13 44.3432 26.402C44.3432 25.8233 44.4365 25.296 44.6232 24.82C44.8099 24.344 45.0665 23.9333 45.3932 23.588C45.7292 23.2333 46.1259 22.9627 46.5832 22.776C47.0499 22.58 47.5539 22.482 48.0952 22.482C48.5712 22.482 49.0145 22.5753 49.4252 22.762C49.8359 22.9393 50.1905 23.1867 50.4892 23.504C50.7972 23.8213 51.0305 24.1993 51.1892 24.638C51.3572 25.0673 51.4365 25.5387 51.4272 26.052L51.4132 26.668H45.4072L45.0852 25.52H50.1672L49.9572 25.758V25.422C49.9292 25.114 49.8265 24.8387 49.6492 24.596C49.4719 24.3533 49.2479 24.162 48.9772 24.022C48.7065 23.882 48.4125 23.812 48.0952 23.812C47.5912 23.812 47.1665 23.91 46.8212 24.106C46.4759 24.2927 46.2145 24.5727 46.0372 24.946C45.8599 25.31 45.7712 25.7627 45.7712 26.304C45.7712 26.8173 45.8785 27.2653 46.0932 27.648C46.3079 28.0213 46.6112 28.3107 47.0032 28.516C47.3952 28.7213 47.8479 28.824 48.3612 28.824C48.7252 28.824 49.0612 28.7633 49.3692 28.642C49.6865 28.5207 50.0272 28.3013 50.3912 27.984L51.1192 29.006C50.8952 29.23 50.6199 29.426 50.2932 29.594C49.9759 29.762 49.6352 29.8973 49.2712 30C48.9165 30.0933 48.5665 30.14 48.2212 30.14ZM52.9943 30V22.65H54.4363V24.162L54.1843 24.33C54.2777 24.0033 54.4597 23.7047 54.7303 23.434C55.001 23.154 55.323 22.93 55.6963 22.762C56.0697 22.5847 56.4523 22.496 56.8443 22.496C57.4043 22.496 57.871 22.608 58.2443 22.832C58.6177 23.0467 58.8977 23.378 59.0843 23.826C59.271 24.274 59.3643 24.8387 59.3643 25.52V30H57.9223V25.618C57.9223 25.198 57.8663 24.8527 57.7543 24.582C57.6423 24.302 57.4697 24.1013 57.2363 23.98C57.003 23.8493 56.7137 23.7933 56.3683 23.812C56.0883 23.812 55.8317 23.8587 55.5983 23.952C55.365 24.036 55.1597 24.1573 54.9823 24.316C54.8143 24.4747 54.679 24.6613 54.5763 24.876C54.483 25.0813 54.4363 25.3053 54.4363 25.548V30H53.7223C53.601 30 53.4797 30 53.3583 30C53.237 30 53.1157 30 52.9943 30ZM64.5863 30L68.3803 20.2H69.9203L73.6863 30H72.0763L69.8363 24.092C69.8083 24.0267 69.7523 23.868 69.6683 23.616C69.5937 23.364 69.505 23.084 69.4023 22.776C69.2997 22.468 69.2063 22.188 69.1223 21.936C69.0383 21.6747 68.9823 21.5067 68.9543 21.432L69.2763 21.418C69.2203 21.5767 69.1503 21.7773 69.0663 22.02C68.9917 22.2627 68.9077 22.5193 68.8143 22.79C68.7303 23.0607 68.6463 23.3173 68.5623 23.56C68.4783 23.7933 68.4083 23.9893 68.3523 24.148L66.1263 30H64.5863ZM66.2663 27.564L66.8263 26.108H71.2783L71.9223 27.564H66.2663ZM77.8956 30.14C77.2143 30.14 76.603 29.972 76.0616 29.636C75.5296 29.3 75.105 28.8427 74.7876 28.264C74.4796 27.6853 74.3256 27.0367 74.3256 26.318C74.3256 25.5993 74.4796 24.9507 74.7876 24.372C75.105 23.7933 75.5296 23.336 76.0616 23C76.603 22.664 77.2143 22.496 77.8956 22.496C78.549 22.496 79.1416 22.6313 79.6736 22.902C80.215 23.1633 80.6256 23.5227 80.9056 23.98L80.1076 24.96C79.9583 24.7453 79.767 24.5493 79.5336 24.372C79.3003 24.1947 79.053 24.0547 78.7916 23.952C78.5303 23.8493 78.2783 23.798 78.0356 23.798C77.5876 23.798 77.1863 23.91 76.8316 24.134C76.4863 24.3487 76.211 24.6473 76.0056 25.03C75.8003 25.4127 75.6976 25.842 75.6976 26.318C75.6976 26.794 75.805 27.2233 76.0196 27.606C76.2343 27.9793 76.519 28.278 76.8736 28.502C77.2283 28.726 77.6203 28.838 78.0496 28.838C78.3016 28.838 78.5443 28.796 78.7776 28.712C79.0203 28.628 79.2536 28.502 79.4776 28.334C79.7016 28.166 79.9116 27.9607 80.1076 27.718L80.9056 28.698C80.607 29.118 80.1776 29.4633 79.6176 29.734C79.067 30.0047 78.493 30.14 77.8956 30.14ZM85.3878 30.14C84.7065 30.14 84.0951 29.972 83.5538 29.636C83.0218 29.3 82.5971 28.8427 82.2798 28.264C81.9718 27.6853 81.8178 27.0367 81.8178 26.318C81.8178 25.5993 81.9718 24.9507 82.2798 24.372C82.5971 23.7933 83.0218 23.336 83.5538 23C84.0951 22.664 84.7065 22.496 85.3878 22.496C86.0411 22.496 86.6338 22.6313 87.1658 22.902C87.7071 23.1633 88.1178 23.5227 88.3978 23.98L87.5998 24.96C87.4505 24.7453 87.2591 24.5493 87.0258 24.372C86.7925 24.1947 86.5451 24.0547 86.2838 23.952C86.0225 23.8493 85.7705 23.798 85.5278 23.798C85.0798 23.798 84.6785 23.91 84.3238 24.134C83.9785 24.3487 83.7031 24.6473 83.4978 25.03C83.2925 25.4127 83.1898 25.842 83.1898 26.318C83.1898 26.794 83.2971 27.2233 83.5118 27.606C83.7265 27.9793 84.0111 28.278 84.3658 28.502C84.7205 28.726 85.1125 28.838 85.5418 28.838C85.7938 28.838 86.0365 28.796 86.2698 28.712C86.5125 28.628 86.7458 28.502 86.9698 28.334C87.1938 28.166 87.4038 27.9607 87.5998 27.718L88.3978 28.698C88.0991 29.118 87.6698 29.4633 87.1098 29.734C86.5591 30.0047 85.9851 30.14 85.3878 30.14ZM93.062 30.14C92.3433 30.14 91.6993 29.9767 91.13 29.65C90.57 29.314 90.1267 28.8613 89.8 28.292C89.4733 27.7133 89.31 27.0553 89.31 26.318C89.31 25.5807 89.4733 24.9273 89.8 24.358C90.1267 23.7793 90.57 23.3267 91.13 23C91.6993 22.664 92.3433 22.496 93.062 22.496C93.7713 22.496 94.406 22.664 94.966 23C95.5353 23.3267 95.9833 23.7793 96.31 24.358C96.6367 24.9273 96.8 25.5807 96.8 26.318C96.8 27.0553 96.6367 27.7133 96.31 28.292C95.9833 28.8613 95.5353 29.314 94.966 29.65C94.406 29.9767 93.7713 30.14 93.062 30.14ZM93.062 28.824C93.5007 28.824 93.8927 28.7167 94.238 28.502C94.5833 28.278 94.854 27.9793 95.05 27.606C95.246 27.2233 95.3393 26.794 95.33 26.318C95.3393 25.8327 95.246 25.4033 95.05 25.03C94.854 24.6473 94.5833 24.3487 94.238 24.134C93.8927 23.9193 93.5007 23.812 93.062 23.812C92.6233 23.812 92.2267 23.924 91.872 24.148C91.5267 24.3627 91.256 24.6613 91.06 25.044C90.864 25.4173 90.7707 25.842 90.78 26.318C90.7707 26.794 90.864 27.2233 91.06 27.606C91.256 27.9793 91.5267 28.278 91.872 28.502C92.2267 28.7167 92.6233 28.824 93.062 28.824ZM100.947 30.14C100.425 30.14 99.9673 30.0187 99.5753 29.776C99.1926 29.5333 98.8939 29.1927 98.6793 28.754C98.4739 28.3153 98.3713 27.7927 98.3713 27.186V22.65H99.8133V26.794C99.8133 27.2233 99.8786 27.5967 100.009 27.914C100.149 28.222 100.345 28.46 100.597 28.628C100.859 28.796 101.171 28.88 101.535 28.88C101.806 28.88 102.053 28.838 102.277 28.754C102.501 28.6607 102.693 28.5347 102.851 28.376C103.019 28.2173 103.15 28.026 103.243 27.802C103.337 27.578 103.383 27.3353 103.383 27.074V22.65H104.825V30H103.383V28.46L103.635 28.292C103.523 28.6373 103.332 28.95 103.061 29.23C102.8 29.51 102.487 29.734 102.123 29.902C101.759 30.0607 101.367 30.14 100.947 30.14ZM106.848 30V22.65H108.29V24.162L108.038 24.33C108.131 24.0033 108.313 23.7047 108.584 23.434C108.855 23.154 109.177 22.93 109.55 22.762C109.923 22.5847 110.306 22.496 110.698 22.496C111.258 22.496 111.725 22.608 112.098 22.832C112.471 23.0467 112.751 23.378 112.938 23.826C113.125 24.274 113.218 24.8387 113.218 25.52V30H111.776V25.618C111.776 25.198 111.72 24.8527 111.608 24.582C111.496 24.302 111.323 24.1013 111.09 23.98C110.857 23.8493 110.567 23.7933 110.222 23.812C109.942 23.812 109.685 23.8587 109.452 23.952C109.219 24.036 109.013 24.1573 108.836 24.316C108.668 24.4747 108.533 24.6613 108.43 24.876C108.337 25.0813 108.29 25.3053 108.29 25.548V30H107.576C107.455 30 107.333 30 107.212 30C107.091 30 106.969 30 106.848 30ZM116.084 30V20.774H117.526V30H116.084ZM114.558 24.05V22.65H119.234V24.05H114.558Z" fill="#1C1C1C"/>
</svg>
