<svg width="372" height="70" viewBox="0 0 372 70" fill="none" xmlns="http://www.w3.org/2000/svg">
<rect x="0.797852" y="0.00561523" width="370.224" height="69.3629" rx="34.6814" fill="#22251B"/>
<path d="M26.5074 40.3431C25.9144 40.3431 25.3629 40.265 24.8531 40.109C24.3537 39.9529 23.8959 39.7188 23.4797 39.4067C23.074 39.0841 22.7098 38.6888 22.3873 38.2206L23.5422 36.894C24.052 37.6223 24.541 38.1269 25.0092 38.4079C25.4774 38.6888 26.034 38.8292 26.6791 38.8292C27.0745 38.8292 27.4334 38.7668 27.756 38.642C28.0785 38.5171 28.3334 38.3454 28.5207 38.1269C28.708 37.9084 28.8016 37.6587 28.8016 37.3778C28.8016 37.1905 28.7704 37.0137 28.708 36.8472C28.6455 36.6807 28.5467 36.5299 28.4114 36.3946C28.2866 36.2593 28.1201 36.1345 27.912 36.02C27.7143 35.9056 27.4802 35.8067 27.2097 35.7235C26.9392 35.6299 26.6271 35.5518 26.2733 35.4894C25.7115 35.375 25.2225 35.2241 24.8063 35.0368C24.3901 34.8495 24.0416 34.6154 23.7607 34.3345C23.4797 34.0536 23.2716 33.7363 23.1364 33.3825C23.0011 33.0184 22.9335 32.6126 22.9335 32.1652C22.9335 31.7282 23.0271 31.3224 23.2144 30.9479C23.4121 30.5733 23.6774 30.2508 24.0104 29.9803C24.3537 29.6993 24.7543 29.4861 25.2121 29.3404C25.6699 29.1843 26.1641 29.1063 26.6947 29.1063C27.2565 29.1063 27.7716 29.1791 28.2398 29.3248C28.708 29.4704 29.1241 29.6889 29.4883 29.9803C29.8524 30.2612 30.1542 30.6097 30.3935 31.0259L29.2074 32.1964C28.9993 31.8531 28.7652 31.5669 28.5051 31.338C28.245 31.0987 27.9588 30.9219 27.6467 30.8074C27.3346 30.6826 27.0016 30.6201 26.6479 30.6201C26.2421 30.6201 25.8884 30.6826 25.5866 30.8074C25.2849 30.9323 25.0456 31.1091 24.8687 31.338C24.7023 31.5565 24.619 31.8166 24.619 32.1184C24.619 32.3369 24.6606 32.5398 24.7439 32.727C24.8271 32.9039 24.952 33.0652 25.1184 33.2108C25.2953 33.3461 25.5294 33.471 25.8207 33.5854C26.1121 33.6894 26.4606 33.7831 26.8664 33.8663C27.4386 33.9912 27.9484 34.1524 28.3958 34.3501C28.8432 34.5374 29.223 34.7611 29.5351 35.0212C29.8472 35.2813 30.0813 35.5726 30.2374 35.8952C30.4039 36.2177 30.4871 36.5663 30.4871 36.9408C30.4871 37.6379 30.3258 38.2414 30.0033 38.7512C29.6808 39.261 29.223 39.6564 28.6299 39.9373C28.0369 40.2078 27.3294 40.3431 26.5074 40.3431ZM35.3411 40.3431C34.7585 40.3431 34.2487 40.2078 33.8117 39.9373C33.3851 39.6668 33.0522 39.287 32.8129 38.798C32.584 38.309 32.4695 37.7264 32.4695 37.0501V31.9935H34.077V36.6131C34.077 37.0917 34.1498 37.5079 34.2955 37.8616C34.4516 38.205 34.6701 38.4703 34.951 38.6576C35.2423 38.8448 35.5909 38.9385 35.9966 38.9385C36.2984 38.9385 36.5741 38.8917 36.8238 38.798C37.0735 38.694 37.2868 38.5535 37.4637 38.3766C37.6509 38.1998 37.7966 37.9865 37.9006 37.7368C38.0047 37.4871 38.0567 37.2165 38.0567 36.9252V31.9935H39.6642V40.187H38.0567V38.4703L38.3376 38.283C38.2128 38.668 37.9995 39.0165 37.6978 39.3286C37.4064 39.6408 37.0579 39.8905 36.6521 40.0778C36.2463 40.2546 35.8093 40.3431 35.3411 40.3431ZM41.9189 43.6205V31.9935H43.542V33.8663L43.2922 33.7259C43.3547 33.4137 43.5316 33.1172 43.8229 32.8363C44.1142 32.545 44.4679 32.3109 44.8841 32.134C45.3107 31.9467 45.7477 31.8531 46.1951 31.8531C46.9338 31.8531 47.5893 32.0351 48.1615 32.3993C48.7338 32.7634 49.1864 33.2629 49.5193 33.8975C49.8522 34.5322 50.0187 35.2605 50.0187 36.0825C50.0187 36.894 49.8522 37.6223 49.5193 38.2674C49.1968 38.9021 48.7494 39.4067 48.1771 39.7812C47.6049 40.1454 46.9598 40.3275 46.2419 40.3275C45.7633 40.3275 45.3003 40.2338 44.8529 40.0466C44.4055 39.8489 44.0258 39.5992 43.7136 39.2974C43.4015 38.9957 43.209 38.6836 43.1362 38.361L43.542 38.1425V43.6205H41.9189ZM45.9766 38.8448C46.4552 38.8448 46.8818 38.7252 47.2563 38.4859C47.6309 38.2466 47.9274 37.9188 48.1459 37.5027C48.3644 37.0865 48.4737 36.6131 48.4737 36.0825C48.4737 35.5518 48.3644 35.0836 48.1459 34.6779C47.9378 34.2617 47.6465 33.9339 47.2719 33.6946C46.8974 33.4553 46.4656 33.3357 45.9766 33.3357C45.4876 33.3357 45.0558 33.4553 44.6812 33.6946C44.3067 33.9235 44.0102 34.2461 43.7917 34.6623C43.5732 35.0784 43.4639 35.5518 43.4639 36.0825C43.4639 36.6131 43.5732 37.0865 43.7917 37.5027C44.0102 37.9188 44.3067 38.2466 44.6812 38.4859C45.0558 38.7252 45.4876 38.8448 45.9766 38.8448ZM51.7645 43.6205V31.9935H53.3876V33.8663L53.1378 33.7259C53.2003 33.4137 53.3772 33.1172 53.6685 32.8363C53.9598 32.545 54.3135 32.3109 54.7297 32.134C55.1563 31.9467 55.5933 31.8531 56.0407 31.8531C56.7794 31.8531 57.4349 32.0351 58.0071 32.3993C58.5794 32.7634 59.032 33.2629 59.3649 33.8975C59.6978 34.5322 59.8643 35.2605 59.8643 36.0825C59.8643 36.894 59.6978 37.6223 59.3649 38.2674C59.0424 38.9021 58.595 39.4067 58.0227 39.7812C57.4505 40.1454 56.8054 40.3275 56.0875 40.3275C55.6089 40.3275 55.1459 40.2338 54.6985 40.0466C54.2511 39.8489 53.8714 39.5992 53.5592 39.2974C53.2471 38.9957 53.0546 38.6836 52.9818 38.361L53.3876 38.1425V43.6205H51.7645ZM55.8222 38.8448C56.3008 38.8448 56.7274 38.7252 57.1019 38.4859C57.4765 38.2466 57.773 37.9188 57.9915 37.5027C58.21 37.0865 58.3193 36.6131 58.3193 36.0825C58.3193 35.5518 58.21 35.0836 57.9915 34.6779C57.7834 34.2617 57.4921 33.9339 57.1175 33.6946C56.743 33.4553 56.3112 33.3357 55.8222 33.3357C55.3332 33.3357 54.9014 33.4553 54.5268 33.6946C54.1523 33.9235 53.8558 34.2461 53.6373 34.6623C53.4188 35.0784 53.3095 35.5518 53.3095 36.0825C53.3095 36.6131 53.4188 37.0865 53.6373 37.5027C53.8558 37.9188 54.1523 38.2466 54.5268 38.4859C54.9014 38.7252 55.3332 38.8448 55.8222 38.8448ZM65.2932 40.3431C64.4921 40.3431 63.7742 40.161 63.1395 39.7968C62.5152 39.4223 62.021 38.9177 61.6569 38.283C61.2927 37.6379 61.1107 36.9044 61.1107 36.0825C61.1107 35.2605 61.2927 34.5322 61.6569 33.8975C62.021 33.2525 62.5152 32.7478 63.1395 32.3837C63.7742 32.0091 64.4921 31.8218 65.2932 31.8218C66.084 31.8218 66.7915 32.0091 67.4157 32.3837C68.0504 32.7478 68.5498 33.2525 68.914 33.8975C69.2781 34.5322 69.4602 35.2605 69.4602 36.0825C69.4602 36.9044 69.2781 37.6379 68.914 38.283C68.5498 38.9177 68.0504 39.4223 67.4157 39.7968C66.7915 40.161 66.084 40.3431 65.2932 40.3431ZM65.2932 38.8761C65.7822 38.8761 66.2192 38.7564 66.6042 38.5171C66.9892 38.2674 67.2909 37.9345 67.5094 37.5183C67.7279 37.0917 67.8319 36.6131 67.8215 36.0825C67.8319 35.5414 67.7279 35.0628 67.5094 34.6467C67.2909 34.2201 66.9892 33.8871 66.6042 33.6478C66.2192 33.4085 65.7822 33.2889 65.2932 33.2889C64.8042 33.2889 64.362 33.4137 63.9667 33.6634C63.5817 33.9027 63.28 34.2357 63.0615 34.6623C62.843 35.0784 62.7389 35.5518 62.7493 36.0825C62.7389 36.6131 62.843 37.0917 63.0615 37.5183C63.28 37.9345 63.5817 38.2674 63.9667 38.5171C64.362 38.7564 64.8042 38.8761 65.2932 38.8761ZM71.2118 40.187V31.9935H72.8349V34.5686L72.6788 33.9444C72.7933 33.549 72.9858 33.19 73.2563 32.8675C73.5372 32.545 73.8545 32.29 74.2083 32.1028C74.5724 31.9155 74.947 31.8218 75.332 31.8218C75.5088 31.8218 75.6753 31.8375 75.8314 31.8687C75.9978 31.8999 76.1279 31.9363 76.2215 31.9779L75.8002 33.7259C75.6753 33.6738 75.5349 33.6322 75.3788 33.601C75.2331 33.5594 75.0875 33.5386 74.9418 33.5386C74.6609 33.5386 74.3904 33.5958 74.1303 33.7103C73.8805 33.8143 73.6569 33.9652 73.4592 34.1628C73.2719 34.3501 73.121 34.5738 73.0066 34.8339C72.8921 35.0836 72.8349 35.3594 72.8349 35.6611V40.187H71.2118ZM78.8255 40.187V29.9022H80.433V40.187H78.8255ZM77.1244 33.5542V31.9935H82.337V33.5542H77.1244ZM87.5482 40.3431C86.7054 40.3431 85.9563 40.1662 85.3008 39.8125C84.6558 39.4483 84.1459 38.9541 83.7714 38.3298C83.4072 37.7056 83.2251 36.9876 83.2251 36.1761C83.2251 35.531 83.3292 34.9432 83.5373 34.4126C83.7454 33.8819 84.0315 33.4241 84.3956 33.0392C84.7702 32.6438 85.2124 32.3421 85.7222 32.134C86.2424 31.9155 86.8043 31.8062 87.4077 31.8062C87.9384 31.8062 88.4326 31.9103 88.8904 32.1184C89.3482 32.3161 89.7435 32.5918 90.0765 32.9455C90.4198 33.2993 90.6799 33.7207 90.8568 34.2097C91.0441 34.6883 91.1325 35.2137 91.1221 35.7859L91.1065 36.4726H84.4113L84.0523 35.1929H89.7175L89.4834 35.4582V35.0836C89.4522 34.7403 89.3378 34.4334 89.1401 34.1628C88.9424 33.8923 88.6927 33.679 88.391 33.523C88.0892 33.3669 87.7615 33.2889 87.4077 33.2889C86.8459 33.2889 86.3725 33.3981 85.9875 33.6166C85.6026 33.8247 85.3112 34.1368 85.1136 34.553C84.9159 34.9588 84.817 35.4634 84.817 36.0669C84.817 36.6391 84.9367 37.1385 85.176 37.5651C85.4153 37.9813 85.7534 38.3038 86.1904 38.5327C86.6274 38.7616 87.132 38.8761 87.7043 38.8761C88.11 38.8761 88.4846 38.8084 88.8279 38.6732C89.1817 38.5379 89.5614 38.2934 89.9672 37.9397L90.7788 39.0789C90.5291 39.3286 90.2221 39.5471 89.858 39.7344C89.5042 39.9217 89.1245 40.0726 88.7187 40.187C88.3233 40.2911 87.9332 40.3431 87.5482 40.3431ZM96.2869 40.3431C95.5378 40.3431 94.8667 40.161 94.2737 39.7968C93.691 39.4223 93.228 38.9177 92.8847 38.283C92.5413 37.6379 92.3697 36.9044 92.3697 36.0825C92.3697 35.2605 92.5361 34.5322 92.8691 33.8975C93.2124 33.2525 93.6754 32.7478 94.2581 32.3837C94.8407 32.0091 95.5014 31.8218 96.2401 31.8218C96.6459 31.8218 97.0361 31.8895 97.4106 32.0247C97.7956 32.1496 98.1389 32.3265 98.4407 32.5554C98.7424 32.7739 98.9765 33.0184 99.143 33.2889C99.3198 33.549 99.4083 33.8143 99.4083 34.0848L98.9401 34.116V28.6381H100.548V40.187H98.9401V38.2362H99.2522C99.2522 38.4859 99.169 38.7356 99.0025 38.9853C98.836 39.2246 98.6123 39.4483 98.3314 39.6564C98.0609 39.8645 97.7436 40.0309 97.3794 40.1558C97.0256 40.2807 96.6615 40.3431 96.2869 40.3431ZM96.5054 38.9541C96.9944 38.9541 97.4262 38.8292 97.8008 38.5795C98.1753 38.3298 98.4667 37.9917 98.6748 37.5651C98.8932 37.1281 99.0025 36.6339 99.0025 36.0825C99.0025 35.531 98.8932 35.042 98.6748 34.6154C98.4667 34.1785 98.1753 33.8351 97.8008 33.5854C97.4262 33.3357 96.9944 33.2108 96.5054 33.2108C96.0164 33.2108 95.5846 33.3357 95.2101 33.5854C94.8355 33.8351 94.539 34.1785 94.3205 34.6154C94.1124 35.042 94.0084 35.531 94.0084 36.0825C94.0084 36.6339 94.1124 37.1281 94.3205 37.5651C94.539 37.9917 94.8355 38.3298 95.2101 38.5795C95.5846 38.8292 96.0164 38.9541 96.5054 38.9541ZM111.973 40.3431C111.213 40.3431 110.516 40.2078 109.881 39.9373C109.247 39.6668 108.695 39.2818 108.227 38.7824C107.759 38.2726 107.395 37.6743 107.135 36.9876C106.885 36.301 106.76 35.5466 106.76 34.7247C106.76 33.9444 106.895 33.2212 107.166 32.5554C107.447 31.8791 107.832 31.286 108.321 30.7762C108.81 30.2664 109.377 29.871 110.022 29.5901C110.667 29.3092 111.364 29.1687 112.113 29.1687C112.644 29.1687 113.159 29.252 113.658 29.4184C114.168 29.5745 114.626 29.7982 115.031 30.0895C115.448 30.3704 115.786 30.693 116.046 31.0571L114.922 32.2276C114.621 31.9259 114.314 31.6762 114.001 31.4785C113.7 31.2704 113.388 31.1143 113.065 31.0103C112.753 30.9063 112.436 30.8542 112.113 30.8542C111.603 30.8542 111.125 30.9531 110.677 31.1508C110.24 31.338 109.855 31.6034 109.522 31.9467C109.2 32.29 108.945 32.701 108.758 33.1796C108.57 33.6478 108.477 34.1628 108.477 34.7247C108.477 35.3177 108.565 35.8588 108.742 36.3478C108.929 36.8264 109.189 37.2374 109.522 37.5807C109.855 37.924 110.251 38.1894 110.708 38.3766C111.177 38.5535 111.692 38.642 112.254 38.642C112.597 38.642 112.935 38.5951 113.268 38.5015C113.601 38.4079 113.913 38.2726 114.204 38.0957C114.496 37.9188 114.761 37.7108 115 37.4715L115.843 38.8448C115.604 39.1258 115.276 39.3807 114.86 39.6096C114.454 39.8385 113.996 40.0205 113.486 40.1558C112.987 40.2807 112.482 40.3431 111.973 40.3431ZM120.599 40.3431C120.016 40.3431 119.506 40.2078 119.069 39.9373C118.643 39.6668 118.31 39.287 118.07 38.798C117.841 38.309 117.727 37.7264 117.727 37.0501V31.9935H119.334V36.6131C119.334 37.0917 119.407 37.5079 119.553 37.8616C119.709 38.205 119.927 38.4703 120.208 38.6576C120.5 38.8448 120.848 38.9385 121.254 38.9385C121.556 38.9385 121.831 38.8917 122.081 38.798C122.331 38.694 122.544 38.5535 122.721 38.3766C122.908 38.1998 123.054 37.9865 123.158 37.7368C123.262 37.4871 123.314 37.2165 123.314 36.9252V31.9935H124.922V40.187H123.314V38.4703L123.595 38.283C123.47 38.668 123.257 39.0165 122.955 39.3286C122.664 39.6408 122.315 39.8905 121.91 40.0778C121.504 40.2546 121.067 40.3431 120.599 40.3431ZM127.176 40.187V31.9935H128.799V34.5686L128.643 33.9444C128.758 33.549 128.95 33.19 129.221 32.8675C129.502 32.545 129.819 32.29 130.173 32.1028C130.537 31.9155 130.911 31.8218 131.296 31.8218C131.473 31.8218 131.64 31.8375 131.796 31.8687C131.962 31.8999 132.092 31.9363 132.186 31.9779L131.765 33.7259C131.64 33.6738 131.499 33.6322 131.343 33.601C131.198 33.5594 131.052 33.5386 130.906 33.5386C130.625 33.5386 130.355 33.5958 130.095 33.7103C129.845 33.8143 129.621 33.9652 129.424 34.1628C129.236 34.3501 129.085 34.5738 128.971 34.8339C128.857 35.0836 128.799 35.3594 128.799 35.6611V40.187H127.176ZM133.471 40.187V31.9935H135.094V34.5686L134.938 33.9444C135.052 33.549 135.245 33.19 135.515 32.8675C135.796 32.545 136.113 32.29 136.467 32.1028C136.831 31.9155 137.206 31.8218 137.591 31.8218C137.768 31.8218 137.934 31.8375 138.09 31.8687C138.257 31.8999 138.387 31.9363 138.48 31.9779L138.059 33.7259C137.934 33.6738 137.794 33.6322 137.638 33.601C137.492 33.5594 137.346 33.5386 137.201 33.5386C136.92 33.5386 136.649 33.5958 136.389 33.7103C136.139 33.8143 135.916 33.9652 135.718 34.1628C135.531 34.3501 135.38 34.5738 135.266 34.8339C135.151 35.0836 135.094 35.3594 135.094 35.6611V40.187H133.471ZM143.238 40.3431C142.396 40.3431 141.646 40.1662 140.991 39.8125C140.346 39.4483 139.836 38.9541 139.462 38.3298C139.097 37.7056 138.915 36.9876 138.915 36.1761C138.915 35.531 139.019 34.9432 139.227 34.4126C139.435 33.8819 139.722 33.4241 140.086 33.0392C140.46 32.6438 140.903 32.3421 141.412 32.134C141.933 31.9155 142.494 31.8062 143.098 31.8062C143.628 31.8062 144.123 31.9103 144.58 32.1184C145.038 32.3161 145.434 32.5918 145.767 32.9455C146.11 33.2993 146.37 33.7207 146.547 34.2097C146.734 34.6883 146.823 35.2137 146.812 35.7859L146.797 36.4726H140.101L139.742 35.1929H145.408L145.174 35.4582V35.0836C145.142 34.7403 145.028 34.4334 144.83 34.1628C144.633 33.8923 144.383 33.679 144.081 33.523C143.779 33.3669 143.452 33.2889 143.098 33.2889C142.536 33.2889 142.063 33.3981 141.678 33.6166C141.293 33.8247 141.001 34.1368 140.804 34.553C140.606 34.9588 140.507 35.4634 140.507 36.0669C140.507 36.6391 140.627 37.1385 140.866 37.5651C141.105 37.9813 141.444 38.3038 141.881 38.5327C142.318 38.7616 142.822 38.8761 143.394 38.8761C143.8 38.8761 144.175 38.8084 144.518 38.6732C144.872 38.5379 145.252 38.2934 145.657 37.9397L146.469 39.0789C146.219 39.3286 145.912 39.5471 145.548 39.7344C145.194 39.9217 144.815 40.0726 144.409 40.187C144.013 40.2911 143.623 40.3431 143.238 40.3431ZM148.559 40.187V31.9935H150.167V33.679L149.886 33.8663C149.99 33.5022 150.193 33.1692 150.494 32.8675C150.796 32.5554 151.155 32.3057 151.571 32.1184C151.987 31.9207 152.414 31.8218 152.851 31.8218C153.475 31.8218 153.996 31.9467 154.412 32.1964C154.828 32.4357 155.14 32.8051 155.348 33.3045C155.556 33.8039 155.66 34.4334 155.66 35.1929V40.187H154.053V35.3021C154.053 34.8339 153.99 34.449 153.865 34.1472C153.741 33.8351 153.548 33.6114 153.288 33.4762C153.028 33.3305 152.705 33.2681 152.32 33.2889C152.008 33.2889 151.722 33.3409 151.462 33.4449C151.202 33.5386 150.973 33.6738 150.775 33.8507C150.588 34.0276 150.437 34.2357 150.323 34.475C150.219 34.7039 150.167 34.9536 150.167 35.2241V40.187H149.371C149.235 40.187 149.1 40.187 148.965 40.187C148.83 40.187 148.694 40.187 148.559 40.187ZM161.321 40.3431C160.562 40.3431 159.88 40.1558 159.277 39.7812C158.684 39.4067 158.21 38.8969 157.856 38.2518C157.513 37.6067 157.341 36.8836 157.341 36.0825C157.341 35.2813 157.513 34.5582 157.856 33.9131C158.21 33.2681 158.684 32.7582 159.277 32.3837C159.88 32.0091 160.562 31.8218 161.321 31.8218C162.049 31.8218 162.71 31.9727 163.303 32.2744C163.907 32.5658 164.364 32.9663 164.677 33.4762L163.787 34.5686C163.621 34.3293 163.407 34.1108 163.147 33.9131C162.887 33.7155 162.611 33.5594 162.32 33.4449C162.029 33.3305 161.748 33.2733 161.477 33.2733C160.978 33.2733 160.53 33.3981 160.135 33.6478C159.75 33.8871 159.443 34.2201 159.214 34.6467C158.985 35.0732 158.871 35.5518 158.871 36.0825C158.871 36.6131 158.991 37.0917 159.23 37.5183C159.469 37.9345 159.787 38.2674 160.182 38.5171C160.577 38.7668 161.014 38.8917 161.493 38.8917C161.774 38.8917 162.044 38.8448 162.304 38.7512C162.575 38.6576 162.835 38.5171 163.085 38.3298C163.334 38.1425 163.569 37.9136 163.787 37.6431L164.677 38.7356C164.344 39.2038 163.865 39.5888 163.241 39.8905C162.627 40.1922 161.987 40.3431 161.321 40.3431ZM167.338 43.7765L168.992 39.9529L169.008 41.2327L164.919 31.9935H166.791L169.351 38.0177C169.403 38.1217 169.465 38.283 169.538 38.5015C169.611 38.7096 169.673 38.9177 169.725 39.1258L169.32 39.2194C169.403 39.0009 169.481 38.7824 169.554 38.5639C169.637 38.3454 169.715 38.1269 169.788 37.9084L171.926 31.9935H173.83L170.459 40.187L169.07 43.7765H167.338Z" fill="white"/>
<rect x="185.91" y="9.1093" width="176.008" height="51.1551" rx="25.5776" fill="#1A1A1A"/>
<rect x="185.91" y="9.1093" width="176.008" height="51.1551" rx="25.5776" stroke="#262626" stroke-width="0.867036"/>
<path fill-rule="evenodd" clip-rule="evenodd" d="M211.488 52.0276C221.065 52.0276 228.828 44.2639 228.828 34.6869C228.828 25.1099 221.065 17.3462 211.488 17.3462C201.911 17.3462 194.147 25.1099 194.147 34.6869C194.147 44.2639 201.911 52.0276 211.488 52.0276Z" fill="#262626"/>
<path fill-rule="evenodd" clip-rule="evenodd" d="M209.968 26.6836C210.921 26.6836 211.869 26.6836 212.822 26.6836C212.766 27.3278 212.706 27.9756 212.654 28.6198C213.764 28.7003 214.846 29.0575 215.819 29.5862C215.399 30.6436 214.975 31.701 214.551 32.7584C213.732 32.0616 212.654 31.6765 211.579 31.6905C211.309 31.6975 211.029 31.75 210.805 31.904C210.658 32.0056 210.549 32.1631 210.518 32.3382C210.493 32.4783 210.5 32.6358 210.578 32.7619C210.665 32.9019 210.819 32.9859 210.973 33.0385C211.288 33.1505 211.628 33.1575 211.957 33.1925C212.731 33.2871 213.508 33.4201 214.24 33.6967C214.807 33.9138 215.35 34.2394 215.738 34.7156C216.106 35.1533 216.32 35.7065 216.4 36.2737C216.495 36.9284 216.467 37.6077 216.264 38.2449C216.106 38.7561 215.836 39.2323 215.486 39.6349C214.762 40.4752 213.697 40.9794 212.605 41.109C212.64 41.7987 212.682 42.485 212.72 43.1747C211.817 43.1747 210.917 43.1747 210.017 43.1747C210.052 42.492 210.098 41.8092 210.129 41.1265C209.405 41.102 208.687 40.9409 208.011 40.6853C207.356 40.4367 206.733 40.1076 206.152 39.7225C206.579 38.623 207.006 37.5236 207.437 36.4207C207.924 36.8304 208.442 37.212 209.009 37.5026C209.618 37.8142 210.294 38.0138 210.98 38.0208C211.306 38.0243 211.642 38.0068 211.95 37.8948C212.139 37.8247 212.325 37.7022 212.409 37.5096C212.496 37.3066 212.489 37.051 212.356 36.8689C212.262 36.7463 212.129 36.6623 211.989 36.6028C211.799 36.5258 211.603 36.4837 211.404 36.4522C210.669 36.3332 209.93 36.2352 209.219 36.0041C208.648 35.8185 208.092 35.5594 207.636 35.1603C207.349 34.9117 207.111 34.607 206.943 34.2639C206.691 33.7527 206.597 33.175 206.604 32.6078C206.604 31.9741 206.733 31.3298 207.048 30.7731C207.321 30.2759 207.738 29.8698 208.207 29.5582C208.774 29.1835 209.408 28.9279 210.052 28.7214C210.024 28.0421 209.996 27.3628 209.968 26.6836Z" fill="#CAFF33"/>
<path d="M270.352 34.6875C270.352 44.2141 262.629 51.9369 253.103 51.9369C243.576 51.9369 235.854 44.2141 235.854 34.6875C235.854 25.161 243.576 17.4382 253.103 17.4382C262.629 17.4382 270.352 25.161 270.352 34.6875Z" fill="#262626"/>
<path d="M257.95 41.8947L257.552 40.0873C257.53 39.981 257.473 39.9014 257.382 39.8486C257.283 39.7954 257.185 39.788 257.086 39.8259L257.029 39.8486L256.893 39.8826C256.832 39.8976 256.762 39.9148 256.682 39.9337C256.603 39.9526 256.51 39.9714 256.404 39.9905C256.298 40.0095 256.186 40.0266 256.069 40.0418C255.951 40.0566 255.825 40.0701 255.688 40.0815C255.551 40.0927 255.415 40.0985 255.279 40.0985C254.316 40.0985 253.45 39.839 252.681 39.3198C251.912 38.8005 251.345 38.0976 250.981 37.211H255.381C255.464 37.211 255.54 37.1827 255.608 37.1257C255.676 37.069 255.718 36.999 255.733 36.9153L256.006 35.642C256.029 35.5287 256.006 35.4262 255.938 35.3352C255.862 35.2442 255.767 35.1986 255.654 35.1986H250.436C250.413 34.6833 250.413 34.2854 250.436 34.005H255.983C256.188 34.005 256.309 33.9065 256.347 33.7095L256.62 32.4135C256.643 32.3074 256.617 32.209 256.541 32.1179C256.473 32.027 256.378 31.9813 256.257 31.9813H250.936C251.315 31.1325 251.883 30.4656 252.641 29.9806C253.399 29.4954 254.256 29.2529 255.211 29.2529C255.241 29.2378 255.353 29.2416 255.546 29.2643C255.739 29.2869 255.849 29.2965 255.876 29.2927C255.902 29.2889 256.001 29.3004 256.171 29.3267C256.342 29.3532 256.427 29.3665 256.427 29.3665L256.626 29.4063C256.683 29.4177 256.726 29.4271 256.757 29.4347L256.802 29.446C256.901 29.4765 256.991 29.4669 257.075 29.4177C257.158 29.3683 257.212 29.2945 257.234 29.196L257.723 27.3885C257.746 27.2899 257.734 27.199 257.689 27.1157C257.621 27.0246 257.545 26.9677 257.462 26.9451C256.764 26.7708 256.029 26.6836 255.256 26.6836C253.558 26.6836 252.041 27.1688 250.703 28.1387C249.365 29.1088 248.443 30.3897 247.935 31.9812H246.821C246.715 31.9812 246.628 32.0153 246.559 32.0835C246.491 32.1516 246.457 32.2388 246.457 32.345V33.6409C246.457 33.747 246.491 33.8342 246.559 33.9023C246.628 33.9706 246.715 34.0045 246.821 34.0045H247.582C247.56 34.3684 247.556 34.7661 247.571 35.1983H246.821C246.722 35.1983 246.637 35.2343 246.565 35.3063C246.493 35.3782 246.457 35.4635 246.457 35.5619V36.8466C246.457 36.9452 246.493 37.0303 246.565 37.1025C246.637 37.1745 246.722 37.2101 246.821 37.2101H247.901C248.378 38.8851 249.28 40.2172 250.607 41.2062C251.933 42.1955 253.483 42.6898 255.256 42.6898C255.4 42.6898 255.546 42.6863 255.694 42.6784C255.842 42.6708 255.98 42.6593 256.109 42.6443C256.238 42.6293 256.365 42.6124 256.49 42.5934C256.615 42.5743 256.729 42.5557 256.831 42.5364C256.933 42.5176 257.03 42.4987 257.121 42.4799C257.212 42.4607 257.293 42.4401 257.365 42.4172C257.437 42.3947 257.497 42.3775 257.547 42.3664C257.596 42.3549 257.636 42.3414 257.666 42.3266L257.723 42.3151C257.807 42.2849 257.871 42.2298 257.916 42.1501C257.962 42.071 257.973 41.9856 257.95 41.8947Z" fill="#CAFF33"/>
<path d="M311.543 38.8821C309.227 48.1718 299.818 53.8249 290.527 51.5088C281.24 49.1927 275.587 39.7832 277.903 30.494C280.218 21.2032 289.627 15.549 298.916 17.8651C308.206 20.1812 313.859 29.5918 311.543 38.8821H311.543Z" fill="#262626"/>
<path fill-rule="evenodd" clip-rule="evenodd" d="M299.946 32.6724C300.18 31.1071 298.988 30.2656 297.358 29.7043L297.887 27.5839L296.596 27.2622L296.081 29.3267C295.742 29.2422 295.394 29.1624 295.047 29.0834L295.566 27.0053L294.276 26.6836L293.747 28.8033C293.466 28.7393 293.19 28.6761 292.923 28.6095L292.924 28.6029L291.144 28.1585L290.801 29.537C290.801 29.537 291.758 29.7565 291.738 29.7701C292.261 29.9006 292.356 30.2465 292.34 30.5208L291.737 32.9364C291.773 32.9456 291.82 32.9588 291.872 32.9794L291.736 32.9456L290.891 36.3295C290.827 36.4883 290.665 36.7265 290.3 36.636C290.312 36.6548 289.361 36.4019 289.361 36.4019L288.721 37.8797L290.401 38.2984C290.59 38.3459 290.778 38.3948 290.963 38.4431C291.083 38.4745 291.202 38.5055 291.32 38.5359L290.786 40.6809L292.076 41.0026L292.605 38.8807C292.957 38.9763 293.299 39.0645 293.633 39.1476L293.106 41.2595L294.397 41.5812L294.931 39.4406C297.132 39.8571 298.787 39.6891 299.483 37.6988C300.044 36.096 299.455 35.1715 298.297 34.5682C299.141 34.373 299.776 33.8183 299.945 32.6724H299.946ZM296.996 36.8077C296.63 38.2788 294.327 37.6701 293.274 37.3918C293.18 37.3669 293.096 37.3447 293.024 37.3268L293.732 34.4855C293.82 34.5074 293.928 34.5315 294.049 34.5588C295.139 34.8032 297.371 35.3041 296.997 36.8077H296.996ZM294.268 33.2404C295.147 33.4748 297.062 33.9857 297.395 32.6493C297.736 31.2822 295.874 30.8701 294.965 30.6689C294.863 30.6462 294.772 30.6263 294.699 30.6079L294.056 33.1849C294.117 33.2001 294.188 33.2191 294.268 33.2404Z" fill="#CAFF33"/>
<path d="M353.587 34.6875C353.587 44.2141 345.865 51.9369 336.338 51.9369C326.812 51.9369 319.089 44.2141 319.089 34.6875C319.089 25.161 326.812 17.4382 336.338 17.4382C345.865 17.4382 353.587 25.161 353.587 34.6875Z" fill="#262626"/>
<g opacity="0.8">
<path d="M336.283 26.6836L336.176 27.0457V37.5539L336.283 37.6603L341.161 34.777L336.283 26.6836Z" fill="#CAFF33"/>
<path d="M336.283 26.6836L331.405 34.777L336.283 37.6603V32.56V26.6836Z" fill="#CAFF33"/>
<path d="M336.283 39.2473L336.223 39.3205V43.0637L336.283 43.2391L341.164 36.3655L336.283 39.2473Z" fill="#CAFF33"/>
<path d="M336.283 43.2391V39.2473L331.405 36.3655L336.283 43.2391Z" fill="#CAFF33"/>
<path d="M336.283 37.6604L341.161 34.7771L336.283 32.5601V37.6604Z" fill="#CAFF33"/>
<path d="M331.405 34.7771L336.283 37.6604V32.5601L331.405 34.7771Z" fill="#CAFF33"/>
</g>
</svg>
