<svg width="151" height="62" viewBox="0 0 151 62" fill="none" xmlns="http://www.w3.org/2000/svg">
<rect x="0.46875" y="0.662109" width="149.78" height="60.7258" rx="8.26391" fill="#22251B"/>
<rect x="14.2422" y="15.8975" width="30.3466" height="30.2555" rx="15.1278" fill="#CAFF33"/>
<path fill-rule="evenodd" clip-rule="evenodd" d="M29.4152 26.3896C29.7012 26.3896 29.9331 26.6203 29.9331 26.9047V30.5102H33.5585C33.8446 30.5102 34.0765 30.7408 34.0765 31.0253C34.0765 31.3098 33.8446 31.5404 33.5585 31.5404H29.9331V35.1459C29.9331 35.4304 29.7012 35.661 29.4152 35.661C29.1291 35.661 28.8973 35.4304 28.8973 35.1459V31.5404H25.2718C24.9858 31.5404 24.7539 31.3098 24.7539 31.0253C24.7539 30.7408 24.9858 30.5102 25.2718 30.5102H28.8973V26.9047C28.8973 26.6203 29.1291 26.3896 29.4152 26.3896Z" fill="#1A1A1A"/>
<path d="M52.0944 24.444V23.2044H58.9948V24.444H52.0944ZM54.8077 27.1022V20.4497H56.2539V27.1022H54.8077ZM67.7971 27.8184C67.0075 27.8184 66.3096 27.6623 65.7036 27.3501C65.1068 27.0379 64.5926 26.5696 64.161 25.9452L65.1802 24.7745C65.6301 25.4173 66.0617 25.8626 66.4749 26.1105C66.8881 26.3584 67.3793 26.4824 67.9486 26.4824C68.2975 26.4824 68.6143 26.4273 68.899 26.3171C69.1836 26.2069 69.4086 26.0554 69.5739 25.8626C69.7391 25.6698 69.8218 25.4494 69.8218 25.2015C69.8218 25.0362 69.7942 24.8801 69.7391 24.7332C69.684 24.5863 69.5968 24.4531 69.4775 24.3338C69.3673 24.2144 69.2204 24.1042 69.0367 24.0032C68.8622 23.9022 68.6557 23.815 68.4169 23.7415C68.1782 23.6589 67.9027 23.59 67.5905 23.5349C66.9294 23.4064 66.3785 23.2136 65.9377 22.9565C65.5062 22.6994 65.1802 22.3734 64.9598 21.9786C64.7487 21.5837 64.6431 21.1246 64.6431 20.6012C64.6431 20.2156 64.7257 19.8575 64.891 19.5269C65.0654 19.1964 65.2996 18.9117 65.5934 18.673C65.8964 18.4251 66.2499 18.2369 66.6539 18.1083C67.058 17.9706 67.4941 17.9017 67.9624 17.9017C68.7062 17.9017 69.3535 18.0486 69.9044 18.3424C70.4645 18.6271 70.9053 19.0449 71.2266 19.5958L70.1799 20.6288C69.9044 20.1789 69.5739 19.8345 69.1882 19.5958C68.8117 19.3571 68.3894 19.2377 67.9211 19.2377C67.563 19.2377 67.2508 19.2928 66.9845 19.403C66.7182 19.5132 66.507 19.6693 66.3509 19.8713C66.204 20.0641 66.1306 20.2936 66.1306 20.5599C66.1306 20.7528 66.1673 20.9318 66.2408 21.0971C66.3142 21.2532 66.4244 21.3955 66.5713 21.5241C66.7274 21.6434 66.934 21.7536 67.1911 21.8546C67.4482 21.9464 67.7558 22.0291 68.1139 22.1025C68.6189 22.2127 69.0688 22.355 69.4637 22.5295C69.8585 22.6948 70.1937 22.8922 70.4691 23.1217C70.7446 23.3513 70.9512 23.6084 71.0889 23.893C71.2358 24.1777 71.3093 24.4853 71.3093 24.8158C71.3093 25.431 71.167 25.9636 70.8823 26.4135C70.5977 26.8635 70.1937 27.2124 69.6703 27.4603C69.1469 27.699 68.5225 27.8184 67.7971 27.8184ZM66.9707 28.934V22.681L68.3067 23.1355V28.934H66.9707ZM68.8577 23.1355L67.5217 22.681V16.91H68.8577V23.1355ZM75.6068 27.7771C74.9733 27.7771 74.3994 27.6348 73.8852 27.3501C73.371 27.0563 72.944 26.6385 72.6043 26.0967L73.4307 25.1739C73.8622 25.6514 74.2387 25.9774 74.5601 26.1518C74.8815 26.3263 75.2304 26.4135 75.6068 26.4135C75.9833 26.4135 76.323 26.3309 76.6261 26.1656C76.9291 26.0003 77.1678 25.7754 77.3423 25.4907C77.5259 25.2061 77.6177 24.8893 77.6177 24.5404C77.6177 24.1731 77.5305 23.8471 77.356 23.5625C77.1908 23.2687 76.9658 23.0391 76.6811 22.8738C76.3965 22.6994 76.0751 22.6121 75.717 22.6121C75.5426 22.6121 75.3773 22.6259 75.2212 22.6535C75.0651 22.6718 74.8769 22.7223 74.6565 22.805C74.4361 22.8876 74.1469 23.0161 73.7888 23.1906L73.0037 22.1301L73.5684 18.0394H78.7747V19.4168H74.505L74.7942 19.1551L74.3397 22.2127L73.9954 21.8133C74.0872 21.7215 74.2433 21.6342 74.4637 21.5516C74.684 21.4598 74.9274 21.3863 75.1936 21.3312C75.4691 21.267 75.7308 21.2348 75.9787 21.2348C76.5664 21.2348 77.0898 21.3725 77.5489 21.648C78.0171 21.9143 78.3844 22.2862 78.6507 22.7636C78.9262 23.2411 79.0639 23.7874 79.0639 24.4026C79.0639 25.0362 78.9124 25.6101 78.6094 26.1243C78.3064 26.6293 77.8932 27.0333 77.3698 27.3363C76.8464 27.6302 76.2588 27.7771 75.6068 27.7771ZM84.0685 27.8184C83.334 27.8184 82.7004 27.6164 82.1678 27.2124C81.6444 26.8084 81.2404 26.2391 80.9558 25.5045C80.6711 24.7607 80.5288 23.8793 80.5288 22.86C80.5288 21.8408 80.6711 20.9639 80.9558 20.2294C81.2404 19.4856 81.6444 18.9117 82.1678 18.5077C82.7004 18.1037 83.334 17.9017 84.0685 17.9017C84.8031 17.9017 85.4367 18.1037 85.9692 18.5077C86.5018 18.9117 86.9104 19.4856 87.195 20.2294C87.4797 20.9639 87.622 21.8408 87.622 22.86C87.622 23.8793 87.4797 24.7607 87.195 25.5045C86.9104 26.2391 86.5018 26.8084 85.9692 27.2124C85.4367 27.6164 84.8031 27.8184 84.0685 27.8184ZM84.0685 26.4686C84.7388 26.4686 85.2576 26.1564 85.6249 25.532C85.9922 24.8985 86.1758 24.0078 86.1758 22.86C86.1758 21.7123 85.9922 20.8262 85.6249 20.2018C85.2576 19.5683 84.7388 19.2515 84.0685 19.2515C83.3982 19.2515 82.8794 19.5683 82.5122 20.2018C82.1449 20.8262 81.9612 21.7123 81.9612 22.86C81.9612 24.0078 82.1449 24.8985 82.5122 25.532C82.8794 26.1564 83.3982 26.4686 84.0685 26.4686ZM92.4347 27.8184C91.7001 27.8184 91.0665 27.6164 90.534 27.2124C90.0106 26.8084 89.6066 26.2391 89.3219 25.5045C89.0373 24.7607 88.8949 23.8793 88.8949 22.86C88.8949 21.8408 89.0373 20.9639 89.3219 20.2294C89.6066 19.4856 90.0106 18.9117 90.534 18.5077C91.0665 18.1037 91.7001 17.9017 92.4347 17.9017C93.1692 17.9017 93.8028 18.1037 94.3354 18.5077C94.8679 18.9117 95.2765 19.4856 95.5612 20.2294C95.8458 20.9639 95.9881 21.8408 95.9881 22.86C95.9881 23.8793 95.8458 24.7607 95.5612 25.5045C95.2765 26.2391 94.8679 26.8084 94.3354 27.2124C93.8028 27.6164 93.1692 27.8184 92.4347 27.8184ZM92.4347 26.4686C93.105 26.4686 93.6237 26.1564 93.991 25.532C94.3583 24.8985 94.542 24.0078 94.542 22.86C94.542 21.7123 94.3583 20.8262 93.991 20.2018C93.6237 19.5683 93.105 19.2515 92.4347 19.2515C91.7644 19.2515 91.2456 19.5683 90.8783 20.2018C90.511 20.8262 90.3274 21.7123 90.3274 22.86C90.3274 24.0078 90.511 24.8985 90.8783 25.532C91.2456 26.1564 91.7644 26.4686 92.4347 26.4686ZM100.801 27.8184C100.066 27.8184 99.4327 27.6164 98.9001 27.2124C98.3767 26.8084 97.9727 26.2391 97.688 25.5045C97.4034 24.7607 97.2611 23.8793 97.2611 22.86C97.2611 21.8408 97.4034 20.9639 97.688 20.2294C97.9727 19.4856 98.3767 18.9117 98.9001 18.5077C99.4327 18.1037 100.066 17.9017 100.801 17.9017C101.535 17.9017 102.169 18.1037 102.701 18.5077C103.234 18.9117 103.643 19.4856 103.927 20.2294C104.212 20.9639 104.354 21.8408 104.354 22.86C104.354 23.8793 104.212 24.7607 103.927 25.5045C103.643 26.2391 103.234 26.8084 102.701 27.2124C102.169 27.6164 101.535 27.8184 100.801 27.8184ZM100.801 26.4686C101.471 26.4686 101.99 26.1564 102.357 25.532C102.724 24.8985 102.908 24.0078 102.908 22.86C102.908 21.7123 102.724 20.8262 102.357 20.2018C101.99 19.5683 101.471 19.2515 100.801 19.2515C100.13 19.2515 99.6117 19.5683 99.2444 20.2018C98.8771 20.8262 98.6935 21.7123 98.6935 22.86C98.6935 24.0078 98.8771 24.8985 99.2444 25.532C99.6117 26.1564 100.13 26.4686 100.801 26.4686ZM106.206 30.1461L105.682 29.5125C106.004 29.3289 106.265 29.1177 106.467 28.8789C106.669 28.6402 106.77 28.4336 106.77 28.2591C106.77 28.1673 106.747 28.0755 106.702 27.9837C106.656 27.901 106.559 27.7817 106.412 27.6256C106.229 27.4511 106.109 27.3042 106.054 27.1848C105.999 27.0655 105.972 26.9369 105.972 26.7992C105.972 26.5788 106.05 26.4043 106.206 26.2758C106.362 26.1381 106.564 26.0692 106.812 26.0692C107.041 26.0692 107.248 26.1381 107.432 26.2758C107.624 26.4043 107.771 26.588 107.872 26.8267C107.982 27.0563 108.038 27.3226 108.038 27.6256C108.038 27.901 107.992 28.1673 107.9 28.4244C107.808 28.6815 107.679 28.9203 107.514 29.1406C107.349 29.361 107.156 29.5584 106.936 29.7329C106.715 29.9073 106.472 30.0451 106.206 30.1461ZM112.839 27.8184C112.104 27.8184 111.471 27.6164 110.938 27.2124C110.415 26.8084 110.011 26.2391 109.726 25.5045C109.441 24.7607 109.299 23.8793 109.299 22.86C109.299 21.8408 109.441 20.9639 109.726 20.2294C110.011 19.4856 110.415 18.9117 110.938 18.5077C111.471 18.1037 112.104 17.9017 112.839 17.9017C113.573 17.9017 114.207 18.1037 114.74 18.5077C115.272 18.9117 115.681 19.4856 115.965 20.2294C116.25 20.9639 116.392 21.8408 116.392 22.86C116.392 23.8793 116.25 24.7607 115.965 25.5045C115.681 26.2391 115.272 26.8084 114.74 27.2124C114.207 27.6164 113.573 27.8184 112.839 27.8184ZM112.839 26.4686C113.509 26.4686 114.028 26.1564 114.395 25.532C114.763 24.8985 114.946 24.0078 114.946 22.86C114.946 21.7123 114.763 20.8262 114.395 20.2018C114.028 19.5683 113.509 19.2515 112.839 19.2515C112.169 19.2515 111.65 19.5683 111.283 20.2018C110.915 20.8262 110.732 21.7123 110.732 22.86C110.732 24.0078 110.915 24.8985 111.283 25.532C111.65 26.1564 112.169 26.4686 112.839 26.4686ZM121.205 27.8184C120.47 27.8184 119.837 27.6164 119.304 27.2124C118.781 26.8084 118.377 26.2391 118.092 25.5045C117.808 24.7607 117.665 23.8793 117.665 22.86C117.665 21.8408 117.808 20.9639 118.092 20.2294C118.377 19.4856 118.781 18.9117 119.304 18.5077C119.837 18.1037 120.47 17.9017 121.205 17.9017C121.94 17.9017 122.573 18.1037 123.106 18.5077C123.638 18.9117 124.047 19.4856 124.332 20.2294C124.616 20.9639 124.758 21.8408 124.758 22.86C124.758 23.8793 124.616 24.7607 124.332 25.5045C124.047 26.2391 123.638 26.8084 123.106 27.2124C122.573 27.6164 121.94 27.8184 121.205 27.8184ZM121.205 26.4686C121.875 26.4686 122.394 26.1564 122.761 25.532C123.129 24.8985 123.312 24.0078 123.312 22.86C123.312 21.7123 123.129 20.8262 122.761 20.2018C122.394 19.5683 121.875 19.2515 121.205 19.2515C120.535 19.2515 120.016 19.5683 119.649 20.2018C119.281 20.8262 119.098 21.7123 119.098 22.86C119.098 24.0078 119.281 24.8985 119.649 25.532C120.016 26.1564 120.535 26.4686 121.205 26.4686Z" fill="white"/>
<path d="M52.6095 46.3691V38.6562H53.4469L56.4109 43.4713L56.0143 43.4602L59.0113 38.6562H59.7936V46.3691H58.9342V42.8432C58.9342 42.1821 58.9452 41.5871 58.9672 41.0582C58.9893 40.5293 59.0297 40.0041 59.0884 39.4825L59.2427 39.7911L56.477 44.1324H55.882L53.1935 39.8462L53.3147 39.4825C53.3735 39.9747 53.4139 40.4816 53.4359 41.0031C53.4579 41.5173 53.469 42.1307 53.469 42.8432V46.3691H52.6095ZM64.2826 46.4793C63.7096 46.4793 63.1991 46.3508 62.751 46.0937C62.3102 45.8366 61.9613 45.4803 61.7042 45.0249C61.4545 44.5694 61.3296 44.0516 61.3296 43.4713C61.3296 42.8983 61.4545 42.3878 61.7042 41.9397C61.9613 41.4916 62.3102 41.139 62.751 40.8819C63.1991 40.6248 63.7096 40.4963 64.2826 40.4963C64.8482 40.4963 65.3514 40.6248 65.7921 40.8819C66.2402 41.139 66.5891 41.4916 66.8389 41.9397C67.096 42.3878 67.2245 42.8983 67.2245 43.4713C67.2245 44.0516 67.096 44.5694 66.8389 45.0249C66.5891 45.4803 66.2402 45.8366 65.7921 46.0937C65.3514 46.3508 64.8482 46.4793 64.2826 46.4793ZM64.2826 45.697C64.6866 45.697 65.0465 45.6015 65.3624 45.4105C65.6782 45.2122 65.9243 44.9477 66.1006 44.6172C66.2769 44.2793 66.3651 43.8973 66.3651 43.4713C66.3651 43.0452 66.2769 42.6669 66.1006 42.3364C65.9243 42.0058 65.6782 41.7487 65.3624 41.5651C65.0465 41.3741 64.6866 41.2786 64.2826 41.2786C63.8785 41.2786 63.5149 41.3741 63.1917 41.5651C62.8759 41.7487 62.6261 42.0095 62.4425 42.3474C62.2662 42.6779 62.1817 43.0526 62.189 43.4713C62.1817 43.8973 62.2662 44.2793 62.4425 44.6172C62.6261 44.9477 62.8759 45.2122 63.1917 45.4105C63.5149 45.6015 63.8785 45.697 64.2826 45.697ZM68.4302 46.3691V40.6175H69.2455L69.2786 41.8185L69.1464 41.8736C69.2198 41.6238 69.3631 41.3961 69.5761 41.1904C69.7891 40.9847 70.0426 40.8195 70.3364 40.6946C70.6376 40.5624 70.9461 40.4963 71.2619 40.4963C71.688 40.4963 72.0443 40.5807 72.3307 40.7497C72.6172 40.9186 72.8339 41.1794 72.9808 41.532C73.1277 41.8846 73.2012 42.3327 73.2012 42.8763V46.3691H72.3638V42.9203C72.3638 42.5384 72.3124 42.2262 72.2095 41.9838C72.114 41.734 71.9635 41.5504 71.7578 41.4328C71.5521 41.3153 71.2987 41.2602 70.9975 41.2676C70.7477 41.2676 70.5164 41.3116 70.3033 41.3998C70.0903 41.4806 69.9067 41.5944 69.7524 41.7414C69.5981 41.8883 69.4769 42.0572 69.3888 42.2482C69.3006 42.4392 69.2566 42.6449 69.2566 42.8652V46.3691H68.8489C68.7975 46.3691 68.7387 46.3691 68.6726 46.3691C68.6065 46.3691 68.5257 46.3691 68.4302 46.3691ZM75.5721 46.3691V39.1079H76.3985V46.3691H75.5721ZM74.2719 41.4108V40.6175H77.8529V41.4108H74.2719ZM78.8677 46.3691V38.2154H79.6941V41.8736L79.5288 42.0389C79.6096 41.7377 79.7602 41.4732 79.9805 41.2455C80.2009 41.0105 80.458 40.8268 80.7518 40.6946C81.053 40.5624 81.3579 40.4963 81.6664 40.4963C82.1071 40.4963 82.4744 40.5807 82.7682 40.7497C83.0621 40.9186 83.2788 41.1794 83.4183 41.532C83.5652 41.8846 83.6387 42.3327 83.6387 42.8763V46.3691H82.8013V42.9203C82.8013 42.5384 82.7499 42.2262 82.647 41.9838C82.5515 41.734 82.4009 41.5504 82.1953 41.4328C81.9896 41.3153 81.7325 41.2602 81.424 41.2676C81.1816 41.2676 80.9538 41.3116 80.7408 41.3998C80.5278 41.4806 80.3441 41.5944 80.1899 41.7414C80.0356 41.8883 79.9144 42.0572 79.8263 42.2482C79.7381 42.4392 79.6941 42.6449 79.6941 42.8652V46.3691H79.2864C79.2349 46.3691 79.1762 46.3691 79.1101 46.3691C79.044 46.3691 78.9632 46.3691 78.8677 46.3691ZM85.2383 46.3691V38.2154H86.0647V46.3691H85.2383ZM88.4993 48.9034L89.6122 46.1928L89.6893 46.9752L86.8025 40.6175H87.7391L89.7114 45.0249C89.7701 45.1424 89.8289 45.282 89.8877 45.4436C89.9464 45.5978 90.0015 45.7521 90.053 45.9064L89.7444 45.8733C89.7959 45.7484 89.8436 45.6199 89.8877 45.4877C89.9391 45.3554 89.9868 45.2269 90.0309 45.102L91.7608 40.6175H92.7084L90.3835 46.3691L89.3918 48.9034H88.4993ZM96.6321 46.3691V45.5538H97.8772V39.4715H96.6321V38.6562H99.9818V39.4715H98.7367V45.5538H99.9818V46.3691H96.6321ZM101.561 46.3691V40.6175H102.377L102.41 41.8185L102.277 41.8736C102.351 41.6238 102.494 41.3961 102.707 41.1904C102.92 40.9847 103.174 40.8195 103.467 40.6946C103.769 40.5624 104.077 40.4963 104.393 40.4963C104.819 40.4963 105.175 40.5807 105.462 40.7497C105.748 40.9186 105.965 41.1794 106.112 41.532C106.259 41.8846 106.332 42.3327 106.332 42.8763V46.3691H105.495V42.9203C105.495 42.5384 105.443 42.2262 105.34 41.9838C105.245 41.734 105.094 41.5504 104.889 41.4328C104.683 41.3153 104.43 41.2602 104.128 41.2676C103.879 41.2676 103.647 41.3116 103.434 41.3998C103.221 41.4806 103.038 41.5944 102.883 41.7414C102.729 41.8883 102.608 42.0572 102.52 42.2482C102.432 42.4392 102.388 42.6449 102.388 42.8652V46.3691H101.98C101.928 46.3691 101.87 46.3691 101.804 46.3691C101.737 46.3691 101.657 46.3691 101.561 46.3691ZM110.334 46.4793C109.79 46.4793 109.305 46.3508 108.879 46.0937C108.453 45.8292 108.115 45.473 107.866 45.0249C107.623 44.5694 107.502 44.0552 107.502 43.4823C107.502 42.9093 107.623 42.3988 107.866 41.9507C108.115 41.4953 108.453 41.139 108.879 40.8819C109.305 40.6248 109.794 40.4963 110.345 40.4963C110.837 40.4963 111.285 40.5954 111.689 40.7938C112.093 40.9847 112.416 41.2529 112.659 41.5981L112.174 42.1931C112.034 42.0095 111.865 41.8479 111.667 41.7083C111.476 41.5687 111.267 41.4622 111.039 41.3888C110.819 41.308 110.598 41.2676 110.378 41.2676C109.989 41.2676 109.64 41.3667 109.331 41.5651C109.023 41.756 108.777 42.0168 108.593 42.3474C108.417 42.6779 108.328 43.0562 108.328 43.4823C108.328 43.9083 108.417 44.2903 108.593 44.6282C108.777 44.9588 109.023 45.2195 109.331 45.4105C109.64 45.6015 109.985 45.697 110.367 45.697C110.587 45.697 110.804 45.664 111.017 45.5978C111.23 45.5244 111.432 45.4215 111.623 45.2893C111.814 45.1571 111.99 44.9918 112.152 44.7935L112.637 45.3885C112.387 45.719 112.053 45.9835 111.634 46.1818C111.215 46.3802 110.782 46.4793 110.334 46.4793ZM116.255 46.4793C115.682 46.4793 115.171 46.3508 114.723 46.0937C114.282 45.8366 113.934 45.4803 113.676 45.0249C113.427 44.5694 113.302 44.0516 113.302 43.4713C113.302 42.8983 113.427 42.3878 113.676 41.9397C113.934 41.4916 114.282 41.139 114.723 40.8819C115.171 40.6248 115.682 40.4963 116.255 40.4963C116.82 40.4963 117.324 40.6248 117.764 40.8819C118.212 41.139 118.561 41.4916 118.811 41.9397C119.068 42.3878 119.197 42.8983 119.197 43.4713C119.197 44.0516 119.068 44.5694 118.811 45.0249C118.561 45.4803 118.212 45.8366 117.764 46.0937C117.324 46.3508 116.82 46.4793 116.255 46.4793ZM116.255 45.697C116.659 45.697 117.019 45.6015 117.335 45.4105C117.65 45.2122 117.897 44.9477 118.073 44.6172C118.249 44.2793 118.337 43.8973 118.337 43.4713C118.337 43.0452 118.249 42.6669 118.073 42.3364C117.897 42.0058 117.65 41.7487 117.335 41.5651C117.019 41.3741 116.659 41.2786 116.255 41.2786C115.851 41.2786 115.487 41.3741 115.164 41.5651C114.848 41.7487 114.598 42.0095 114.415 42.3474C114.238 42.6779 114.154 43.0526 114.161 43.4713C114.154 43.8973 114.238 44.2793 114.415 44.6172C114.598 44.9477 114.848 45.2122 115.164 45.4105C115.487 45.6015 115.851 45.697 116.255 45.697ZM120.391 46.3691V40.6175H121.218L121.24 41.9287L121.075 41.9838C121.133 41.7634 121.229 41.5651 121.361 41.3888C121.501 41.2051 121.666 41.0472 121.857 40.915C122.048 40.7827 122.257 40.6836 122.485 40.6175C122.713 40.544 122.951 40.5073 123.201 40.5073C123.502 40.5073 123.77 40.5587 124.005 40.6615C124.248 40.757 124.45 40.926 124.612 41.1684C124.78 41.4034 124.909 41.7156 124.997 42.105L124.799 42.0058L124.876 41.8185C124.949 41.6495 125.056 41.4879 125.195 41.3337C125.342 41.1721 125.508 41.0288 125.691 40.9039C125.882 40.7791 126.088 40.6836 126.308 40.6175C126.536 40.544 126.767 40.5073 127.003 40.5073C127.407 40.5073 127.748 40.5954 128.027 40.7717C128.306 40.9407 128.516 41.2014 128.655 41.554C128.802 41.9066 128.876 42.3547 128.876 42.8983V46.3691H128.027V42.9424C128.027 42.5604 127.98 42.2482 127.884 42.0058C127.789 41.7634 127.645 41.5834 127.454 41.4659C127.271 41.341 127.036 41.2786 126.749 41.2786C126.499 41.2786 126.268 41.3226 126.055 41.4108C125.849 41.4916 125.669 41.6091 125.515 41.7634C125.368 41.9103 125.251 42.0793 125.162 42.2702C125.082 42.4612 125.041 42.6669 125.041 42.8873V46.3691H124.204V42.9314C124.204 42.5641 124.152 42.2592 124.05 42.0168C123.954 41.7744 123.811 41.5908 123.62 41.4659C123.429 41.341 123.194 41.2786 122.915 41.2786C122.672 41.2786 122.448 41.3226 122.243 41.4108C122.037 41.4916 121.857 41.6055 121.703 41.7524C121.556 41.8993 121.438 42.0682 121.35 42.2592C121.269 42.4502 121.229 42.6559 121.229 42.8763V46.3691H120.391ZM132.976 46.4793C132.403 46.4793 131.893 46.3544 131.444 46.1047C131.004 45.8549 130.658 45.506 130.409 45.0579C130.159 44.6098 130.034 44.0956 130.034 43.5153C130.034 43.0672 130.104 42.6632 130.243 42.3033C130.383 41.936 130.578 41.6165 130.827 41.3447C131.085 41.0729 131.389 40.8635 131.742 40.7166C132.095 40.5624 132.477 40.4852 132.888 40.4852C133.277 40.4852 133.63 40.555 133.946 40.6946C134.269 40.8342 134.544 41.0288 134.772 41.2786C135.007 41.521 135.183 41.8111 135.301 42.149C135.418 42.4869 135.47 42.8579 135.455 43.2619L135.444 43.6476H130.651L130.53 42.9534H134.816L134.618 43.1407V42.8763C134.603 42.6118 134.526 42.3584 134.386 42.116C134.247 41.8662 134.049 41.6642 133.791 41.51C133.542 41.3557 133.24 41.2786 132.888 41.2786C132.477 41.2786 132.12 41.363 131.819 41.532C131.518 41.6936 131.287 41.936 131.125 42.2592C130.963 42.5824 130.883 42.9828 130.883 43.4602C130.883 43.9157 130.971 44.3123 131.147 44.6502C131.323 44.9808 131.573 45.2379 131.896 45.4215C132.227 45.6052 132.623 45.697 133.086 45.697C133.358 45.697 133.626 45.6529 133.891 45.5648C134.162 45.4693 134.46 45.2857 134.783 45.0139L135.213 45.6089C135.044 45.7778 134.842 45.9284 134.607 46.0606C134.372 46.1855 134.115 46.2883 133.835 46.3691C133.556 46.4426 133.27 46.4793 132.976 46.4793Z" fill="#E4E4E7"/>
</svg>
